<svg width="80" height="80" viewBox="0 0 80 80" fill="none" xmlns="http://www.w3.org/2000/svg">
<path d="M0 4C0 1.79086 1.79086 0 4 0H76C78.2091 0 80 1.79086 80 4V76C80 78.2091 78.2091 80 76 80H4C1.79086 80 0 78.2091 0 76V4Z" fill="#27272A"/>
<path opacity="0.2" d="M58 40C58.0027 42.5244 57.4731 45.0209 56.4457 47.3268C55.4183 49.6326 53.9162 51.6959 52.0375 53.3819C50.908 51.1602 49.1855 49.2946 47.0609 47.9917C44.9362 46.6887 42.4923 45.9994 40 46C41.4834 46 42.9334 45.5602 44.1668 44.7361C45.4001 43.912 46.3614 42.7406 46.9291 41.3702C47.4968 39.9997 47.6453 38.4917 47.3559 37.0369C47.0665 35.582 46.3522 34.2456 45.3033 33.1967C44.2544 32.1479 42.918 31.4335 41.4632 31.1442C40.0083 30.8548 38.5003 31.0033 37.1299 31.571C35.7594 32.1386 34.5881 33.0999 33.764 34.3333C32.9399 35.5666 32.5 37.0167 32.5 38.5C32.5 40.4892 33.2902 42.3968 34.6967 43.8033C36.1032 45.2099 38.0109 46 40 46C37.5077 45.9994 35.0638 46.6887 32.9392 47.9917C30.8145 49.2946 29.092 51.1602 27.9625 53.3819C25.7317 51.3754 24.0379 48.843 23.0351 46.0152C22.0323 43.1873 21.7523 40.1536 22.2206 37.1899C22.6888 34.2263 23.8905 31.4267 25.7163 29.0457C27.5422 26.6648 29.9342 24.778 32.6749 23.557C35.4157 22.336 38.4182 21.8195 41.4094 22.0544C44.4006 22.2893 47.2856 23.2683 49.8021 24.9022C52.3186 26.5361 54.3868 28.7732 55.8185 31.41C57.2503 34.0468 58.0002 36.9996 58 40Z" fill="white"/>
<path d="M40 20.5C36.1433 20.5 32.3731 21.6437 29.1664 23.7863C25.9596 25.929 23.4603 28.9745 21.9844 32.5377C20.5084 36.1008 20.1223 40.0216 20.8747 43.8043C21.6271 47.5869 23.4843 51.0615 26.2114 53.7886C28.9386 56.5157 32.4131 58.3729 36.1957 59.1253C39.9784 59.8777 43.8992 59.4916 47.4623 58.0156C51.0255 56.5397 54.071 54.0404 56.2137 50.8336C58.3564 47.6269 59.5 43.8567 59.5 40C59.4945 34.83 57.4383 29.8732 53.7826 26.2174C50.1268 22.5617 45.1701 20.5055 40 20.5ZM29.89 53.0312C30.9751 51.3342 32.47 49.9375 34.2369 48.9701C36.0037 48.0027 37.9857 47.4956 40 47.4956C42.0144 47.4956 43.9963 48.0027 45.7632 48.9701C47.53 49.9375 49.0249 51.3342 50.11 53.0312C47.2194 55.2793 43.6619 56.4999 40 56.4999C36.3381 56.4999 32.7806 55.2793 29.89 53.0312ZM34 38.5C34 37.3133 34.3519 36.1533 35.0112 35.1666C35.6705 34.1799 36.6076 33.4108 37.7039 32.9567C38.8003 32.5026 40.0067 32.3838 41.1706 32.6153C42.3344 32.8468 43.4035 33.4182 44.2426 34.2574C45.0818 35.0965 45.6532 36.1656 45.8847 37.3295C46.1162 38.4933 45.9974 39.6997 45.5433 40.7961C45.0892 41.8925 44.3201 42.8295 43.3334 43.4888C42.3467 44.1481 41.1867 44.5 40 44.5C38.4087 44.5 36.8826 43.8679 35.7574 42.7426C34.6321 41.6174 34 40.0913 34 38.5ZM52.33 50.9519C50.6571 48.5276 48.3047 46.6522 45.5688 45.5613C47.0384 44.4037 48.1108 42.817 48.6369 41.0217C49.1629 39.2264 49.1164 37.3118 48.5039 35.5441C47.8914 33.7765 46.7432 32.2437 45.2191 31.1588C43.6951 30.0739 41.8708 29.491 40 29.491C38.1292 29.491 36.305 30.0739 34.7809 31.1588C33.2568 32.2437 32.1086 33.7765 31.4961 35.5441C30.8836 37.3118 30.8371 39.2264 31.3631 41.0217C31.8892 42.817 32.9616 44.4037 34.4313 45.5613C31.6953 46.6522 29.3429 48.5276 27.67 50.9519C25.5561 48.5747 24.1744 45.6371 23.6913 42.4928C23.2083 39.3485 23.6445 36.1317 24.9474 33.2296C26.2502 30.3274 28.3643 27.8638 31.0349 26.1354C33.7055 24.4069 36.8189 23.4873 40 23.4873C43.1812 23.4873 46.2945 24.4069 48.9651 26.1354C51.6357 27.8638 53.7498 30.3274 55.0527 33.2296C56.3555 36.1317 56.7917 39.3485 56.3087 42.4928C55.8256 45.6371 54.4439 48.5747 52.33 50.9519Z" fill="white"/>
</svg>
